<?xml version="1.0" encoding="UTF-8"?>
<svg id="Layer_1" data-name="Layer 1" xmlns="http://www.w3.org/2000/svg" xmlns:xlink="http://www.w3.org/1999/xlink" viewBox="0 0 16 16">
  <defs>
    <style>
      .cls-1 {
        fill: url(#linear-gradient-2);
      }

      .cls-2 {
        fill: url(#linear-gradient-6);
      }

      .cls-3 {
        fill: url(#linear-gradient-5);
      }

      .cls-4 {
        fill: url(#linear-gradient-7);
      }

      .cls-5 {
        fill: url(#linear-gradient-3);
      }

      .cls-6 {
        fill: url(#linear-gradient);
      }

      .cls-7 {
        fill: url(#linear-gradient-4);
      }
    </style>
    <linearGradient id="linear-gradient" x1="7.96" y1="2.95" x2="8.04" y2="13.13" gradientUnits="userSpaceOnUse">
      <stop offset="0" stop-color="#f3d20b"/>
      <stop offset="1" stop-color="#f76a00"/>
    </linearGradient>
    <linearGradient id="linear-gradient-2" x1="7.96" y1="2.95" x2="8.04" y2="13.13" xlink:href="#linear-gradient"/>
    <linearGradient id="linear-gradient-3" x1="4.67" y1="2.97" x2="4.75" y2="13.15" xlink:href="#linear-gradient"/>
    <linearGradient id="linear-gradient-4" x1="7.93" y1="2.95" x2="8.01" y2="13.13" xlink:href="#linear-gradient"/>
    <linearGradient id="linear-gradient-5" x1="11.25" y1="2.92" x2="11.33" y2="13.1" xlink:href="#linear-gradient"/>
    <linearGradient id="linear-gradient-6" x1="7.99" y1="2.95" x2="8.07" y2="13.13" xlink:href="#linear-gradient"/>
    <linearGradient id="linear-gradient-7" x1="7.96" y1="2.95" x2="8.04" y2="13.13" xlink:href="#linear-gradient"/>
  </defs>
  <path class="cls-6" d="M11.49,8.18c0,.16-.03,.32-.06,.48-.03,.13-.06,.27-.1,.39-.34,1.08-1.2,1.94-2.28,2.28v.5c1.35-.37,2.41-1.43,2.78-2.78,.04-.13,.06-.26,.09-.39,.03-.16,.04-.32,.05-.48h-.48Zm-3.31,3.79c.16,0,.32-.02,.48-.05v-.49c-.16,.03-.32,.05-.48,.06v.48Zm-.83-.54c-.13-.03-.27-.06-.39-.1-1.08-.34-1.94-1.2-2.28-2.28h-.5c.37,1.35,1.43,2.41,2.78,2.78,.13,.04,.26,.06,.39,.09,.16,.03,.32,.04,.48,.05v-.48c-.16,0-.32-.03-.48-.06Zm-2.83-3.25h-.48c0,.16,.02,.32,.05,.48h.49c-.03-.16-.05-.32-.06-.48Zm2.83-4.09v.49c.16-.03,.32-.05,.48-.06v-.48c-.16,0-.32,.02-.48,.05Zm-3.17,2.87c-.04,.13-.06,.26-.09,.39-.03,.16-.04,.32-.05,.48h.48c0-.16,.03-.32,.06-.48,.03-.13,.06-.27,.1-.39,.34-1.08,1.2-1.94,2.28-2.28v-.5c-1.35,.37-2.41,1.43-2.78,2.78Zm4.87-2.78c-.13-.04-.26-.06-.39-.09-.16-.03-.32-.04-.48-.05v.48c.16,0,.32,.03,.48,.06,.13,.03,.27,.06,.39,.1,1.08,.34,1.94,1.2,2.28,2.28h.5c-.37-1.35-1.43-2.41-2.78-2.78Zm2.87,3.17h-.49c.03,.16,.05,.32,.06,.48h.48c0-.16-.02-.32-.05-.48Z"/>
  <path class="cls-1" d="M11,7.35c-.03-.13-.07-.27-.11-.39-.31-.85-.99-1.53-1.84-1.84v.3s0,.08,0,.12c0,.03,0,.06-.01,.08,.61,.26,1.1,.75,1.36,1.36,.05,.12,.1,.25,.13,.38,.04,.15,.07,.31,.08,.47h.48c0-.16-.03-.32-.07-.48Zm-2.83-2.42v.48c.16,.01,.32,.04,.47,.08,0-.02,0-.05,0-.08v-.41c-.16-.03-.31-.06-.48-.06Zm-2.77,2.42h-.41c-.03,.16-.06,.31-.07,.48h.48c.01-.16,.04-.32,.08-.47-.02,0-.05,0-.08,0Zm1.94-2.35c-.13,.03-.27,.07-.39,.11-.85,.31-1.53,.99-1.84,1.84h.3s.08,0,.12,0c.03,0,.06,0,.08,.01,.26-.61,.75-1.1,1.36-1.36,.12-.05,.25-.1,.38-.13,.15-.04,.31-.07,.47-.08v-.48c-.16,0-.32,.03-.48,.06Zm-1.73,4.03c-.05-.12-.1-.25-.13-.38-.04-.15-.07-.31-.08-.47h-.48c0,.16,.03,.32,.07,.48,.03,.13,.07,.27,.11,.39,.31,.85,.99,1.53,1.84,1.84v-.3s0-.08,0-.12c0-.03,0-.06,.01-.08-.61-.26-1.1-.75-1.36-1.36Zm1.74,1.49s0,.05,0,.08v.41c.16,.03,.31,.06,.48,.07v-.48c-.16-.01-.32-.04-.47-.08Zm3.24-1.47s-.08,0-.12,0c-.03,0-.06,0-.08-.01-.26,.61-.75,1.1-1.36,1.36-.12,.05-.25,.1-.38,.13-.15,.04-.31,.07-.47,.08v.48c.16,0,.32-.03,.48-.07,.13-.03,.27-.07,.39-.11,.85-.31,1.53-.99,1.84-1.84h-.3Zm0-.87c-.01,.16-.04,.32-.08,.47,.02,0,.05,0,.08,0h.41c.03-.16,.06-.31,.07-.48h-.48Z"/>
  <path class="cls-5" d="M5.41,8.18h-.9c0,.16,.03,.32,.06,.48h.84s.05,0,.08,0c-.04-.15-.07-.31-.08-.47Zm.08-.82c-.04,.15-.07,.31-.08,.47h0c.1,0,.18,.08,.18,.18s-.08,.18-.18,.18h-.9c0,.16,.03,.32,.06,.48h.84s.05,0,.08,0c.32-.04,.58-.31,.58-.65s-.25-.61-.58-.65Zm0,0c-.04,.15-.07,.31-.08,.47h0c.1,0,.18,.08,.18,.18s-.08,.18-.18,.18h-.9c0,.16,.03,.32,.06,.48h.84s.05,0,.08,0c.32-.04,.58-.31,.58-.65s-.25-.61-.58-.65Zm0,0c-.04,.15-.07,.31-.08,.47h0c.1,0,.18,.08,.18,.18s-.08,.18-.18,.18h-.9c0,.16,.03,.32,.06,.48h.84s.05,0,.08,0c.32-.04,.58-.31,.58-.65s-.25-.61-.58-.65Zm0,0c-.04,.15-.07,.31-.08,.47h0c.1,0,.18,.08,.18,.18s-.08,.18-.18,.18h-.9c0,.16,.03,.32,.06,.48h.84s.05,0,.08,0c.32-.04,.58-.31,.58-.65s-.25-.61-.58-.65Zm0,0s-.05,0-.08,0h-1.39c-.36,0-.65,.29-.65,.65s.29,.65,.65,.65h1.39s.05,0,.08,0c.32-.04,.58-.31,.58-.65s-.25-.61-.58-.65Zm-.08,.82h-1.39c-.1,0-.18-.08-.18-.18s.08-.18,.18-.18h1.39c.1,0,.18,.08,.18,.18s-.08,.18-.18,.18Zm.08-.82c-.04,.15-.07,.31-.08,.47h0c.1,0,.18,.08,.18,.18s-.08,.18-.18,.18h-.9c0,.16,.03,.32,.06,.48h.84s.05,0,.08,0c.32-.04,.58-.31,.58-.65s-.25-.61-.58-.65Zm0,0c-.04,.15-.07,.31-.08,.47h0c.1,0,.18,.08,.18,.18s-.08,.18-.18,.18h-.9c0,.16,.03,.32,.06,.48h.84s.05,0,.08,0c.32-.04,.58-.31,.58-.65s-.25-.61-.58-.65Zm0,0c-.04,.15-.07,.31-.08,.47h0c.1,0,.18,.08,.18,.18s-.08,.18-.18,.18h-.9c0,.16,.03,.32,.06,.48h.84s.05,0,.08,0c.32-.04,.58-.31,.58-.65s-.25-.61-.58-.65Zm0,0c-.04,.15-.07,.31-.08,.47h0c.1,0,.18,.08,.18,.18s-.08,.18-.18,.18h-.9c0,.16,.03,.32,.06,.48h.84s.05,0,.08,0c.32-.04,.58-.31,.58-.65s-.25-.61-.58-.65Z"/>
  <path class="cls-7" d="M8.65,10.51c-.04-.32-.31-.58-.65-.58s-.61,.25-.65,.58c.15,.04,.31,.07,.47,.08h0c0-.1,.08-.18,.18-.18s.18,.08,.18,.18v.9c.16,0,.32-.03,.48-.06v-.84s0-.05,0-.08Zm0,0c-.04-.32-.31-.58-.65-.58s-.61,.25-.65,.58c.15,.04,.31,.07,.47,.08h0c0-.1,.08-.18,.18-.18s.18,.08,.18,.18v.9c.16,0,.32-.03,.48-.06v-.84s0-.05,0-.08Zm0,0c-.04-.32-.31-.58-.65-.58s-.61,.25-.65,.58c.15,.04,.31,.07,.47,.08h0c0-.1,.08-.18,.18-.18s.18,.08,.18,.18v.9c.16,0,.32-.03,.48-.06v-.84s0-.05,0-.08Zm0,0c-.04-.32-.31-.58-.65-.58s-.61,.25-.65,.58c.15,.04,.31,.07,.47,.08h0c0-.1,.08-.18,.18-.18s.18,.08,.18,.18v.9c.16,0,.32-.03,.48-.06v-.84s0-.05,0-.08Zm0,0c-.04-.32-.31-.58-.65-.58s-.61,.25-.65,.58c.15,.04,.31,.07,.47,.08h0c0-.1,.08-.18,.18-.18s.18,.08,.18,.18v.9c.16,0,.32-.03,.48-.06v-.84s0-.05,0-.08Zm0,0c-.04-.32-.31-.58-.65-.58s-.61,.25-.65,.58c0,.02,0,.05,0,.08v1.39c0,.36,.29,.65,.65,.65s.65-.29,.65-.65v-1.39s0-.05,0-.08Zm-.47,1.47c0,.1-.08,.18-.18,.18s-.18-.08-.18-.18v-1.39c0-.1,.08-.18,.18-.18s.18,.08,.18,.18v1.39Zm.47-1.47c-.04-.32-.31-.58-.65-.58s-.61,.25-.65,.58c.15,.04,.31,.07,.47,.08h0c0-.1,.08-.18,.18-.18s.18,.08,.18,.18v.9c.16,0,.32-.03,.48-.06v-.84s0-.05,0-.08Zm0,0c-.04-.32-.31-.58-.65-.58s-.61,.25-.65,.58c.15,.04,.31,.07,.47,.08h0c0-.1,.08-.18,.18-.18s.18,.08,.18,.18v.9c.16,0,.32-.03,.48-.06v-.84s0-.05,0-.08Zm0,0c-.04-.32-.31-.58-.65-.58s-.61,.25-.65,.58c.15,.04,.31,.07,.47,.08h0c0-.1,.08-.18,.18-.18s.18,.08,.18,.18v.9c.16,0,.32-.03,.48-.06v-.84s0-.05,0-.08Zm0,0c-.04-.32-.31-.58-.65-.58s-.61,.25-.65,.58c.15,.04,.31,.07,.47,.08h0c0-.1,.08-.18,.18-.18s.18,.08,.18,.18v.9c.16,0,.32-.03,.48-.06v-.84s0-.05,0-.08Zm0,0c-.04-.32-.31-.58-.65-.58s-.61,.25-.65,.58c.15,.04,.31,.07,.47,.08h0c0-.1,.08-.18,.18-.18s.18,.08,.18,.18v.9c.16,0,.32-.03,.48-.06v-.84s0-.05,0-.08Z"/>
  <path class="cls-3" d="M10.41,8c0-.1,.08-.18,.18-.18h0c-.01-.16-.04-.32-.08-.47-.32,.04-.58,.31-.58,.65s.25,.61,.58,.65c.04-.15,.07-.31,.08-.47h0c-.1,0-.18-.08-.18-.18Zm1.01-.65h-.84s-.05,0-.08,0c-.32,.04-.58,.31-.58,.65s.25,.61,.58,.65c.04-.15,.07-.31,.08-.47h0c-.1,0-.18-.08-.18-.18s.08-.18,.18-.18h.9c0-.16-.03-.32-.06-.48Zm0,0h-.84s-.05,0-.08,0c-.32,.04-.58,.31-.58,.65s.25,.61,.58,.65c.04-.15,.07-.31,.08-.47h0c-.1,0-.18-.08-.18-.18s.08-.18,.18-.18h.9c0-.16-.03-.32-.06-.48Zm0,0h-.84s-.05,0-.08,0c-.32,.04-.58,.31-.58,.65s.25,.61,.58,.65c.04-.15,.07-.31,.08-.47h0c-.1,0-.18-.08-.18-.18s.08-.18,.18-.18h.9c0-.16-.03-.32-.06-.48Zm0,0h-.84s-.05,0-.08,0c-.32,.04-.58,.31-.58,.65s.25,.61,.58,.65c.04-.15,.07-.31,.08-.47h0c-.1,0-.18-.08-.18-.18s.08-.18,.18-.18h.9c0-.16-.03-.32-.06-.48Zm0,0h-.84s-.05,0-.08,0c-.32,.04-.58,.31-.58,.65s.25,.61,.58,.65c.04-.15,.07-.31,.08-.47h0c-.1,0-.18-.08-.18-.18s.08-.18,.18-.18h.9c0-.16-.03-.32-.06-.48Zm0,0h-.84s-.05,0-.08,0c-.32,.04-.58,.31-.58,.65s.25,.61,.58,.65c.04-.15,.07-.31,.08-.47h0c-.1,0-.18-.08-.18-.18s.08-.18,.18-.18h.9c0-.16-.03-.32-.06-.48Zm.56,0h-1.4s-.05,0-.08,0c-.32,.04-.58,.31-.58,.65s.25,.61,.58,.65c.02,0,.05,0,.08,0h1.4c.36,0,.65-.29,.65-.65s-.29-.65-.65-.65Zm0,.83h-1.4c-.1,0-.18-.08-.18-.18s.08-.18,.18-.18h1.4c.1,0,.18,.08,.18,.18s-.08,.18-.18,.18Zm-.56-.83h-.84s-.05,0-.08,0c-.32,.04-.58,.31-.58,.65s.25,.61,.58,.65c.04-.15,.07-.31,.08-.47h0c-.1,0-.18-.08-.18-.18s.08-.18,.18-.18h.9c0-.16-.03-.32-.06-.48Zm0,0h-.84s-.05,0-.08,0c-.32,.04-.58,.31-.58,.65s.25,.61,.58,.65c.04-.15,.07-.31,.08-.47h0c-.1,0-.18-.08-.18-.18s.08-.18,.18-.18h.9c0-.16-.03-.32-.06-.48Zm0,0h-.84s-.05,0-.08,0c-.32,.04-.58,.31-.58,.65s.25,.61,.58,.65c.04-.15,.07-.31,.08-.47h0c-.1,0-.18-.08-.18-.18s.08-.18,.18-.18h.9c0-.16-.03-.32-.06-.48Zm0,0h-.84s-.05,0-.08,0c-.32,.04-.58,.31-.58,.65s.25,.61,.58,.65c.04-.15,.07-.31,.08-.47h0c-.1,0-.18-.08-.18-.18s.08-.18,.18-.18h.9c0-.16-.03-.32-.06-.48Zm0,0h-.84s-.05,0-.08,0c-.32,.04-.58,.31-.58,.65s.25,.61,.58,.65c.04-.15,.07-.31,.08-.47h0c-.1,0-.18-.08-.18-.18s.08-.18,.18-.18h.9c0-.16-.03-.32-.06-.48Zm0,0h-.84s-.05,0-.08,0c-.32,.04-.58,.31-.58,.65s.25,.61,.58,.65c.04-.15,.07-.31,.08-.47h0c-.1,0-.18-.08-.18-.18s.08-.18,.18-.18h.9c0-.16-.03-.32-.06-.48Z"/>
  <path class="cls-2" d="M7.35,4.57v.84s0,.05,0,.08c.15-.04,.31-.07,.47-.08v-.9c-.16,0-.32,.03-.48,.06Zm.83,.84h0c0,.1-.08,.18-.18,.18s-.18-.08-.18-.18v-.9c-.16,0-.32,.03-.48,.06v.84s0,.05,0,.08c.04,.32,.31,.58,.65,.58s.61-.25,.65-.58c-.15-.04-.31-.07-.47-.08Zm0,0h0c0,.1-.08,.18-.18,.18s-.18-.08-.18-.18v-.9c-.16,0-.32,.03-.48,.06v.84s0,.05,0,.08c.04,.32,.31,.58,.65,.58s.61-.25,.65-.58c-.15-.04-.31-.07-.47-.08Zm0,0h0c0,.1-.08,.18-.18,.18s-.18-.08-.18-.18v-.9c-.16,0-.32,.03-.48,.06v.84s0,.05,0,.08c.04,.32,.31,.58,.65,.58s.61-.25,.65-.58c-.15-.04-.31-.07-.47-.08Zm0,0h0c0,.1-.08,.18-.18,.18s-.18-.08-.18-.18v-.9c-.16,0-.32,.03-.48,.06v.84s0,.05,0,.08c.04,.32,.31,.58,.65,.58s.61-.25,.65-.58c-.15-.04-.31-.07-.47-.08Zm0,0h0c0,.1-.08,.18-.18,.18s-.18-.08-.18-.18v-.9c-.16,0-.32,.03-.48,.06v.84s0,.05,0,.08c.04,.32,.31,.58,.65,.58s.61-.25,.65-.58c-.15-.04-.31-.07-.47-.08Zm0,0h0c0,.1-.08,.18-.18,.18s-.18-.08-.18-.18v-.9c-.16,0-.32,.03-.48,.06v.84s0,.05,0,.08c.04,.32,.31,.58,.65,.58s.61-.25,.65-.58c-.15-.04-.31-.07-.47-.08Zm0,0h0c0,.1-.08,.18-.18,.18s-.18-.08-.18-.18v-.9c-.16,0-.32,.03-.48,.06v.84s0,.05,0,.08c.04,.32,.31,.58,.65,.58s.61-.25,.65-.58c-.15-.04-.31-.07-.47-.08Zm-.18-2.05c-.36,0-.65,.29-.65,.65v1.39s0,.05,0,.08c.04,.32,.31,.58,.65,.58s.61-.25,.65-.58c0-.02,0-.05,0-.08v-1.39c0-.36-.29-.65-.65-.65Zm.18,2.05c0,.1-.08,.18-.18,.18s-.18-.08-.18-.18v-1.39c0-.1,.08-.18,.18-.18s.18,.08,.18,.18v1.39Zm0,0h0c0,.1-.08,.18-.18,.18s-.18-.08-.18-.18v-.9c-.16,0-.32,.03-.48,.06v.84s0,.05,0,.08c.04,.32,.31,.58,.65,.58s.61-.25,.65-.58c-.15-.04-.31-.07-.47-.08Zm0,0h0c0,.1-.08,.18-.18,.18s-.18-.08-.18-.18v-.9c-.16,0-.32,.03-.48,.06v.84s0,.05,0,.08c.04,.32,.31,.58,.65,.58s.61-.25,.65-.58c-.15-.04-.31-.07-.47-.08Zm0,0h0c0,.1-.08,.18-.18,.18s-.18-.08-.18-.18v-.9c-.16,0-.32,.03-.48,.06v.84s0,.05,0,.08c.04,.32,.31,.58,.65,.58s.61-.25,.65-.58c-.15-.04-.31-.07-.47-.08Zm0,0h0c0,.1-.08,.18-.18,.18s-.18-.08-.18-.18v-.9c-.16,0-.32,.03-.48,.06v.84s0,.05,0,.08c.04,.32,.31,.58,.65,.58s.61-.25,.65-.58c-.15-.04-.31-.07-.47-.08Zm0,0h0c0,.1-.08,.18-.18,.18s-.18-.08-.18-.18v-.9c-.16,0-.32,.03-.48,.06v.84s0,.05,0,.08c.04,.32,.31,.58,.65,.58s.61-.25,.65-.58c-.15-.04-.31-.07-.47-.08Zm0,0h0c0,.1-.08,.18-.18,.18s-.18-.08-.18-.18v-.9c-.16,0-.32,.03-.48,.06v.84s0,.05,0,.08c.04,.32,.31,.58,.65,.58s.61-.25,.65-.58c-.15-.04-.31-.07-.47-.08Zm0,0h0c0,.1-.08,.18-.18,.18s-.18-.08-.18-.18v-.9c-.16,0-.32,.03-.48,.06v.84s0,.05,0,.08c.04,.32,.31,.58,.65,.58s.61-.25,.65-.58c-.15-.04-.31-.07-.47-.08Z"/>
  <path class="cls-4" d="M8,7.17c-.46,0-.83,.37-.83,.83s.37,.83,.83,.83,.83-.37,.83-.83-.37-.83-.83-.83Zm0,1.17c-.19,0-.35-.16-.35-.35s.16-.35,.35-.35,.35,.16,.35,.35-.16,.35-.35,.35Z"/>
</svg>