<?xml version="1.0" encoding="UTF-8"?>
<svg id="Layer_1" data-name="Layer 1" xmlns="http://www.w3.org/2000/svg" xmlns:xlink="http://www.w3.org/1999/xlink" viewBox="0 0 1280 1280">
  <defs>
    <style>
      .cls-1 {
        fill: url(#linear-gradient-2);
      }

      .cls-2 {
        fill: url(#linear-gradient-6);
      }

      .cls-3 {
        fill: url(#linear-gradient-5);
      }

      .cls-4 {
        fill: url(#linear-gradient-7);
      }

      .cls-5 {
        fill: url(#linear-gradient-3);
      }

      .cls-6 {
        fill: url(#linear-gradient);
      }

      .cls-7 {
        fill: url(#linear-gradient-4);
      }
    </style>
    <linearGradient id="linear-gradient" x1="636.48" y1="197.06" x2="643.57" y2="1089.25" gradientUnits="userSpaceOnUse">
      <stop offset="0" stop-color="#f3d20b"/>
      <stop offset="1" stop-color="#f76a00"/>
    </linearGradient>
    <linearGradient id="linear-gradient-2" x1="636.48" y1="197.06" x2="643.57" y2="1089.25" xlink:href="#linear-gradient"/>
    <linearGradient id="linear-gradient-3" x1="348.39" y1="199.35" x2="355.48" y2="1091.54" xlink:href="#linear-gradient"/>
    <linearGradient id="linear-gradient-4" x1="634.19" y1="197.07" x2="641.28" y2="1089.27" xlink:href="#linear-gradient"/>
    <linearGradient id="linear-gradient-5" x1="924.57" y1="194.77" x2="931.66" y2="1086.96" xlink:href="#linear-gradient"/>
    <linearGradient id="linear-gradient-6" x1="638.77" y1="197.04" x2="645.86" y2="1089.23" xlink:href="#linear-gradient"/>
    <linearGradient id="linear-gradient-7" x1="636.48" y1="197.06" x2="643.57" y2="1089.25" xlink:href="#linear-gradient"/>
  </defs>
  <path class="cls-6" d="M945.49,655.39c-.71,14.24-2.41,28.24-5,41.89-2.24,11.75-5.15,23.26-8.7,34.49-29.94,94.96-105.06,170.08-200.02,200.02v43.63c118.12-32.3,211.35-125.53,243.67-243.65,3.08-11.28,5.62-22.79,7.56-34.49,2.29-13.7,3.77-27.69,4.39-41.89h-41.91Zm-290.09,332c14.19-.62,28.19-2.09,41.89-4.39v-42.53c-13.65,2.59-27.64,4.29-41.89,5v41.91Zm-72.68-46.91c-11.75-2.24-23.26-5.15-34.49-8.7-94.96-29.94-170.08-105.06-200.02-200.02h-43.66c32.33,118.12,125.56,211.35,243.67,243.65,11.28,3.1,22.79,5.64,34.49,7.59,13.7,2.29,27.69,3.77,41.89,4.39v-41.91c-14.24-.71-28.24-2.41-41.89-5Zm-248.21-285.09h-41.91c.62,14.19,2.09,28.19,4.39,41.89h42.53c-2.59-13.65-4.29-27.64-5-41.89Zm248.21-358.42v42.53c13.65-2.59,27.64-4.29,41.89-5v-41.91c-14.19,.62-28.19,2.09-41.89,4.39Zm-278.17,251.24c-3.08,11.28-5.62,22.79-7.56,34.49-2.29,13.7-3.77,27.69-4.39,41.89h41.91c.71-14.24,2.41-28.24,5-41.89,2.24-11.75,5.15-23.26,8.7-34.49,29.94-94.96,105.06-170.08,200.02-200.02v-43.63c-118.12,32.33-211.35,125.56-243.67,243.65Zm427.23-243.65c-11.28-3.1-22.79-5.64-34.49-7.59-13.7-2.29-27.69-3.77-41.89-4.39v41.91c14.24,.71,28.24,2.41,41.89,5,11.75,2.24,23.26,5.15,34.49,8.7,94.96,29.94,170.08,105.06,200.02,200.02h43.66c-32.33-118.09-125.56-211.32-243.67-243.65Zm251.24,278.14h-42.53c2.59,13.65,4.29,27.64,5,41.89h41.91c-.62-14.19-2.09-28.19-4.39-41.89Z"/>
  <path class="cls-1" d="M903.29,582.7c-2.56-11.8-5.89-23.33-9.95-34.49-27.2-74.85-86.68-134.35-161.55-161.53v26.34c0,3.67-.22,7.29-.64,10.74-.3,2.46-.67,4.88-1.16,7.27,53.22,22.99,95.99,65.76,119,118.98,4.63,10.62,8.43,21.68,11.38,33.09,3.45,13.38,5.72,27.25,6.65,41.49h41.98c-.81-14.29-2.73-28.29-5.72-41.89Zm-247.89-211.69v41.98c14.24,.94,28.11,3.2,41.49,6.65,.27-2.17,.39-4.39,.39-6.63v-36.32c-13.6-2.96-27.6-4.9-41.89-5.69Zm-242.37,211.69h-36.32c-2.98,13.6-4.9,27.59-5.72,41.89h41.98c.94-14.24,3.2-28.11,6.65-41.49-2.17-.27-4.36-.39-6.6-.39Zm169.69-206c-11.8,2.56-23.33,5.91-34.49,9.98-74.88,27.18-134.35,86.68-161.55,161.53h26.36c3.65,0,7.27,.22,10.72,.64,2.46,.3,4.88,.67,7.27,1.16,23.01-53.22,65.78-95.99,119-118.98,10.62-4.63,21.68-8.43,33.09-11.38,13.38-3.45,27.25-5.72,41.49-6.65v-41.98c-14.29,.79-28.28,2.73-41.89,5.69Zm-151.72,353.27c-4.61-10.64-8.43-21.71-11.36-33.09-3.45-13.4-5.72-27.27-6.65-41.49h-41.98c.81,14.29,2.73,28.28,5.72,41.89,2.56,11.8,5.89,23.33,9.95,34.49,27.2,74.88,86.68,134.35,161.55,161.53v-26.31c0-3.67,.22-7.29,.64-10.74,.3-2.44,.67-4.85,1.16-7.24-53.24-23.01-96.04-65.78-119.03-119.03Zm152.12,130.39c-.27,2.17-.39,4.39-.39,6.63v36.29c13.6,2.98,27.6,4.9,41.89,5.72v-41.98c-14.24-.94-28.11-3.2-41.49-6.65Zm283.86-128.59c-3.67,0-7.27-.22-10.72-.64-2.44-.3-4.85-.67-7.24-1.16-22.99,53.24-65.78,96.02-119.03,119.03-10.64,4.61-21.68,8.4-33.09,11.36-13.38,3.45-27.25,5.72-41.49,6.65v41.98c14.29-.81,28.28-2.73,41.89-5.72,11.8-2.56,23.33-5.91,34.49-9.98,74.88-27.18,134.35-86.65,161.55-161.53h-26.36Zm.05-76.38c-.94,14.22-3.2,28.09-6.65,41.49,2.17,.27,4.36,.39,6.6,.39h36.32c2.98-13.6,4.9-27.6,5.72-41.89h-41.98Z"/>
  <path class="cls-5" d="M412.98,655.39h-78.47c.71,14.24,2.41,28.24,5,41.89h73.52c2.24,0,4.43-.12,6.6-.39-3.45-13.4-5.72-27.27-6.65-41.49Zm6.65-72.29c-3.45,13.38-5.72,27.25-6.65,41.49h.05c8.48,0,15.4,6.9,15.4,15.4s-6.92,15.4-15.4,15.4h-78.52c.71,14.24,2.41,28.24,5,41.89h73.52c2.24,0,4.43-.12,6.6-.39,28.48-3.28,50.68-27.55,50.68-56.89s-22.2-53.61-50.68-56.89Zm0,0c-3.45,13.38-5.72,27.25-6.65,41.49h.05c8.48,0,15.4,6.9,15.4,15.4s-6.92,15.4-15.4,15.4h-78.52c.71,14.24,2.41,28.24,5,41.89h73.52c2.24,0,4.43-.12,6.6-.39,28.48-3.28,50.68-27.55,50.68-56.89s-22.2-53.61-50.68-56.89Zm0,0c-3.45,13.38-5.72,27.25-6.65,41.49h.05c8.48,0,15.4,6.9,15.4,15.4s-6.92,15.4-15.4,15.4h-78.52c.71,14.24,2.41,28.24,5,41.89h73.52c2.24,0,4.43-.12,6.6-.39,28.48-3.28,50.68-27.55,50.68-56.89s-22.2-53.61-50.68-56.89Zm0,0c-3.45,13.38-5.72,27.25-6.65,41.49h.05c8.48,0,15.4,6.9,15.4,15.4s-6.92,15.4-15.4,15.4h-78.52c.71,14.24,2.41,28.24,5,41.89h73.52c2.24,0,4.43-.12,6.6-.39,28.48-3.28,50.68-27.55,50.68-56.89s-22.2-53.61-50.68-56.89Zm0,0c-2.17-.27-4.36-.39-6.6-.39h-122.26c-31.61,0-57.31,25.7-57.31,57.28s25.7,57.28,57.31,57.28h122.26c2.24,0,4.43-.12,6.6-.39,28.48-3.28,50.68-27.55,50.68-56.89s-22.2-53.61-50.68-56.89Zm-6.6,72.29h-122.26c-8.5,0-15.42-6.9-15.42-15.4s6.92-15.4,15.42-15.4h122.26c8.48,0,15.4,6.9,15.4,15.4s-6.92,15.4-15.4,15.4Zm6.6-72.29c-3.45,13.38-5.72,27.25-6.65,41.49h.05c8.48,0,15.4,6.9,15.4,15.4s-6.92,15.4-15.4,15.4h-78.52c.71,14.24,2.41,28.24,5,41.89h73.52c2.24,0,4.43-.12,6.6-.39,28.48-3.28,50.68-27.55,50.68-56.89s-22.2-53.61-50.68-56.89Zm0,0c-3.45,13.38-5.72,27.25-6.65,41.49h.05c8.48,0,15.4,6.9,15.4,15.4s-6.92,15.4-15.4,15.4h-78.52c.71,14.24,2.41,28.24,5,41.89h73.52c2.24,0,4.43-.12,6.6-.39,28.48-3.28,50.68-27.55,50.68-56.89s-22.2-53.61-50.68-56.89Zm0,0c-3.45,13.38-5.72,27.25-6.65,41.49h.05c8.48,0,15.4,6.9,15.4,15.4s-6.92,15.4-15.4,15.4h-78.52c.71,14.24,2.41,28.24,5,41.89h73.52c2.24,0,4.43-.12,6.6-.39,28.48-3.28,50.68-27.55,50.68-56.89s-22.2-53.61-50.68-56.89Zm0,0c-3.45,13.38-5.72,27.25-6.65,41.49h.05c8.48,0,15.4,6.9,15.4,15.4s-6.92,15.4-15.4,15.4h-78.52c.71,14.24,2.41,28.24,5,41.89h73.52c2.24,0,4.43-.12,6.6-.39,28.48-3.28,50.68-27.55,50.68-56.89s-22.2-53.61-50.68-56.89Z"/>
  <path class="cls-7" d="M696.89,860.35c-3.28-28.48-27.55-50.68-56.89-50.68s-53.61,22.2-56.89,50.68c13.38,3.45,27.25,5.72,41.49,6.65v-.02c0-8.5,6.9-15.42,15.4-15.42s15.4,6.92,15.4,15.42v78.5c14.24-.71,28.24-2.41,41.89-5v-73.5c0-2.24-.12-4.46-.39-6.63Zm0,0c-3.28-28.48-27.55-50.68-56.89-50.68s-53.61,22.2-56.89,50.68c13.38,3.45,27.25,5.72,41.49,6.65v-.02c0-8.5,6.9-15.42,15.4-15.42s15.4,6.92,15.4,15.42v78.5c14.24-.71,28.24-2.41,41.89-5v-73.5c0-2.24-.12-4.46-.39-6.63Zm0,0c-3.28-28.48-27.55-50.68-56.89-50.68s-53.61,22.2-56.89,50.68c13.38,3.45,27.25,5.72,41.49,6.65v-.02c0-8.5,6.9-15.42,15.4-15.42s15.4,6.92,15.4,15.42v78.5c14.24-.71,28.24-2.41,41.89-5v-73.5c0-2.24-.12-4.46-.39-6.63Zm0,0c-3.28-28.48-27.55-50.68-56.89-50.68s-53.61,22.2-56.89,50.68c13.38,3.45,27.25,5.72,41.49,6.65v-.02c0-8.5,6.9-15.42,15.4-15.42s15.4,6.92,15.4,15.42v78.5c14.24-.71,28.24-2.41,41.89-5v-73.5c0-2.24-.12-4.46-.39-6.63Zm0,0c-3.28-28.48-27.55-50.68-56.89-50.68s-53.61,22.2-56.89,50.68c13.38,3.45,27.25,5.72,41.49,6.65v-.02c0-8.5,6.9-15.42,15.4-15.42s15.4,6.92,15.4,15.42v78.5c14.24-.71,28.24-2.41,41.89-5v-73.5c0-2.24-.12-4.46-.39-6.63Zm0,0c-3.28-28.48-27.55-50.68-56.89-50.68s-53.61,22.2-56.89,50.68c-.27,2.17-.39,4.39-.39,6.63v122.26c0,31.59,25.7,57.28,57.28,57.28s57.28-25.7,57.28-57.28v-122.26c0-2.24-.12-4.46-.39-6.63Zm-41.49,128.88c0,8.48-6.9,15.4-15.4,15.4s-15.4-6.92-15.4-15.4v-122.26c0-8.5,6.9-15.42,15.4-15.42s15.4,6.92,15.4,15.42v122.26Zm41.49-128.88c-3.28-28.48-27.55-50.68-56.89-50.68s-53.61,22.2-56.89,50.68c13.38,3.45,27.25,5.72,41.49,6.65v-.02c0-8.5,6.9-15.42,15.4-15.42s15.4,6.92,15.4,15.42v78.5c14.24-.71,28.24-2.41,41.89-5v-73.5c0-2.24-.12-4.46-.39-6.63Zm0,0c-3.28-28.48-27.55-50.68-56.89-50.68s-53.61,22.2-56.89,50.68c13.38,3.45,27.25,5.72,41.49,6.65v-.02c0-8.5,6.9-15.42,15.4-15.42s15.4,6.92,15.4,15.42v78.5c14.24-.71,28.24-2.41,41.89-5v-73.5c0-2.24-.12-4.46-.39-6.63Zm0,0c-3.28-28.48-27.55-50.68-56.89-50.68s-53.61,22.2-56.89,50.68c13.38,3.45,27.25,5.72,41.49,6.65v-.02c0-8.5,6.9-15.42,15.4-15.42s15.4,6.92,15.4,15.42v78.5c14.24-.71,28.24-2.41,41.89-5v-73.5c0-2.24-.12-4.46-.39-6.63Zm0,0c-3.28-28.48-27.55-50.68-56.89-50.68s-53.61,22.2-56.89,50.68c13.38,3.45,27.25,5.72,41.49,6.65v-.02c0-8.5,6.9-15.42,15.4-15.42s15.4,6.92,15.4,15.42v78.5c14.24-.71,28.24-2.41,41.89-5v-73.5c0-2.24-.12-4.46-.39-6.63Zm0,0c-3.28-28.48-27.55-50.68-56.89-50.68s-53.61,22.2-56.89,50.68c13.38,3.45,27.25,5.72,41.49,6.65v-.02c0-8.5,6.9-15.42,15.4-15.42s15.4,6.92,15.4,15.42v78.5c14.24-.71,28.24-2.41,41.89-5v-73.5c0-2.24-.12-4.46-.39-6.63Z"/>
  <path class="cls-3" d="M851.57,639.99c0-8.5,6.92-15.4,15.4-15.4h.05c-.94-14.24-3.2-28.11-6.65-41.49-28.48,3.28-50.68,27.55-50.68,56.89s22.2,53.61,50.68,56.89c3.45-13.4,5.72-27.27,6.65-41.49h-.05c-8.48,0-15.4-6.9-15.4-15.4Zm88.92-57.28h-73.52c-2.24,0-4.43,.12-6.6,.39-28.48,3.28-50.68,27.55-50.68,56.89s22.2,53.61,50.68,56.89c3.45-13.4,5.72-27.27,6.65-41.49h-.05c-8.48,0-15.4-6.9-15.4-15.4s6.92-15.4,15.4-15.4h78.52c-.71-14.24-2.41-28.24-5-41.89Zm0,0h-73.52c-2.24,0-4.43,.12-6.6,.39-28.48,3.28-50.68,27.55-50.68,56.89s22.2,53.61,50.68,56.89c3.45-13.4,5.72-27.27,6.65-41.49h-.05c-8.48,0-15.4-6.9-15.4-15.4s6.92-15.4,15.4-15.4h78.52c-.71-14.24-2.41-28.24-5-41.89Zm0,0h-73.52c-2.24,0-4.43,.12-6.6,.39-28.48,3.28-50.68,27.55-50.68,56.89s22.2,53.61,50.68,56.89c3.45-13.4,5.72-27.27,6.65-41.49h-.05c-8.48,0-15.4-6.9-15.4-15.4s6.92-15.4,15.4-15.4h78.52c-.71-14.24-2.41-28.24-5-41.89Zm0,0h-73.52c-2.24,0-4.43,.12-6.6,.39-28.48,3.28-50.68,27.55-50.68,56.89s22.2,53.61,50.68,56.89c3.45-13.4,5.72-27.27,6.65-41.49h-.05c-8.48,0-15.4-6.9-15.4-15.4s6.92-15.4,15.4-15.4h78.52c-.71-14.24-2.41-28.24-5-41.89Zm0,0h-73.52c-2.24,0-4.43,.12-6.6,.39-28.48,3.28-50.68,27.55-50.68,56.89s22.2,53.61,50.68,56.89c3.45-13.4,5.72-27.27,6.65-41.49h-.05c-8.48,0-15.4-6.9-15.4-15.4s6.92-15.4,15.4-15.4h78.52c-.71-14.24-2.41-28.24-5-41.89Zm0,0h-73.52c-2.24,0-4.43,.12-6.6,.39-28.48,3.28-50.68,27.55-50.68,56.89s22.2,53.61,50.68,56.89c3.45-13.4,5.72-27.27,6.65-41.49h-.05c-8.48,0-15.4-6.9-15.4-15.4s6.92-15.4,15.4-15.4h78.52c-.71-14.24-2.41-28.24-5-41.89Zm48.76,0h-122.28c-2.24,0-4.43,.12-6.6,.39-28.48,3.28-50.68,27.55-50.68,56.89s22.2,53.61,50.68,56.89c2.17,.27,4.36,.39,6.6,.39h122.28c31.59,0,57.28-25.7,57.28-57.28s-25.7-57.28-57.28-57.28Zm0,72.68h-122.28c-8.48,0-15.4-6.9-15.4-15.4s6.92-15.4,15.4-15.4h122.28c8.48,0,15.4,6.9,15.4,15.4s-6.92,15.4-15.4,15.4Zm-48.76-72.68h-73.52c-2.24,0-4.43,.12-6.6,.39-28.48,3.28-50.68,27.55-50.68,56.89s22.2,53.61,50.68,56.89c3.45-13.4,5.72-27.27,6.65-41.49h-.05c-8.48,0-15.4-6.9-15.4-15.4s6.92-15.4,15.4-15.4h78.52c-.71-14.24-2.41-28.24-5-41.89Zm0,0h-73.52c-2.24,0-4.43,.12-6.6,.39-28.48,3.28-50.68,27.55-50.68,56.89s22.2,53.61,50.68,56.89c3.45-13.4,5.72-27.27,6.65-41.49h-.05c-8.48,0-15.4-6.9-15.4-15.4s6.92-15.4,15.4-15.4h78.52c-.71-14.24-2.41-28.24-5-41.89Zm0,0h-73.52c-2.24,0-4.43,.12-6.6,.39-28.48,3.28-50.68,27.55-50.68,56.89s22.2,53.61,50.68,56.89c3.45-13.4,5.72-27.27,6.65-41.49h-.05c-8.48,0-15.4-6.9-15.4-15.4s6.92-15.4,15.4-15.4h78.52c-.71-14.24-2.41-28.24-5-41.89Zm0,0h-73.52c-2.24,0-4.43,.12-6.6,.39-28.48,3.28-50.68,27.55-50.68,56.89s22.2,53.61,50.68,56.89c3.45-13.4,5.72-27.27,6.65-41.49h-.05c-8.48,0-15.4-6.9-15.4-15.4s6.92-15.4,15.4-15.4h78.52c-.71-14.24-2.41-28.24-5-41.89Zm0,0h-73.52c-2.24,0-4.43,.12-6.6,.39-28.48,3.28-50.68,27.55-50.68,56.89s22.2,53.61,50.68,56.89c3.45-13.4,5.72-27.27,6.65-41.49h-.05c-8.48,0-15.4-6.9-15.4-15.4s6.92-15.4,15.4-15.4h78.52c-.71-14.24-2.41-28.24-5-41.89Zm0,0h-73.52c-2.24,0-4.43,.12-6.6,.39-28.48,3.28-50.68,27.55-50.68,56.89s22.2,53.61,50.68,56.89c3.45-13.4,5.72-27.27,6.65-41.49h-.05c-8.48,0-15.4-6.9-15.4-15.4s6.92-15.4,15.4-15.4h78.52c-.71-14.24-2.41-28.24-5-41.89Z"/>
  <path class="cls-2" d="M582.72,339.5v73.52c0,2.24,.12,4.46,.39,6.63,13.38-3.45,27.25-5.72,41.49-6.65v-78.5c-14.24,.71-28.24,2.41-41.89,5Zm72.68,73.5v.02c0,8.48-6.9,15.4-15.4,15.4s-15.4-6.92-15.4-15.4v-78.52c-14.24,.71-28.24,2.41-41.89,5v73.52c0,2.24,.12,4.46,.39,6.63,3.28,28.48,27.55,50.66,56.89,50.66s53.61-22.17,56.89-50.66c-13.38-3.45-27.25-5.72-41.49-6.65Zm0,0v.02c0,8.48-6.9,15.4-15.4,15.4s-15.4-6.92-15.4-15.4v-78.52c-14.24,.71-28.24,2.41-41.89,5v73.52c0,2.24,.12,4.46,.39,6.63,3.28,28.48,27.55,50.66,56.89,50.66s53.61-22.17,56.89-50.66c-13.38-3.45-27.25-5.72-41.49-6.65Zm0,0v.02c0,8.48-6.9,15.4-15.4,15.4s-15.4-6.92-15.4-15.4v-78.52c-14.24,.71-28.24,2.41-41.89,5v73.52c0,2.24,.12,4.46,.39,6.63,3.28,28.48,27.55,50.66,56.89,50.66s53.61-22.17,56.89-50.66c-13.38-3.45-27.25-5.72-41.49-6.65Zm0,0v.02c0,8.48-6.9,15.4-15.4,15.4s-15.4-6.92-15.4-15.4v-78.52c-14.24,.71-28.24,2.41-41.89,5v73.52c0,2.24,.12,4.46,.39,6.63,3.28,28.48,27.55,50.66,56.89,50.66s53.61-22.17,56.89-50.66c-13.38-3.45-27.25-5.72-41.49-6.65Zm0,0v.02c0,8.48-6.9,15.4-15.4,15.4s-15.4-6.92-15.4-15.4v-78.52c-14.24,.71-28.24,2.41-41.89,5v73.52c0,2.24,.12,4.46,.39,6.63,3.28,28.48,27.55,50.66,56.89,50.66s53.61-22.17,56.89-50.66c-13.38-3.45-27.25-5.72-41.49-6.65Zm0,0v.02c0,8.48-6.9,15.4-15.4,15.4s-15.4-6.92-15.4-15.4v-78.52c-14.24,.71-28.24,2.41-41.89,5v73.52c0,2.24,.12,4.46,.39,6.63,3.28,28.48,27.55,50.66,56.89,50.66s53.61-22.17,56.89-50.66c-13.38-3.45-27.25-5.72-41.49-6.65Zm0,0v.02c0,8.48-6.9,15.4-15.4,15.4s-15.4-6.92-15.4-15.4v-78.52c-14.24,.71-28.24,2.41-41.89,5v73.52c0,2.24,.12,4.46,.39,6.63,3.28,28.48,27.55,50.66,56.89,50.66s53.61-22.17,56.89-50.66c-13.38-3.45-27.25-5.72-41.49-6.65Zm-15.4-179.52c-31.59,0-57.28,25.7-57.28,57.28v122.26c0,2.24,.12,4.46,.39,6.63,3.28,28.48,27.55,50.66,56.89,50.66s53.61-22.17,56.89-50.66c.27-2.17,.39-4.39,.39-6.63v-122.26c0-31.59-25.7-57.28-57.28-57.28Zm15.4,179.54c0,8.48-6.9,15.4-15.4,15.4s-15.4-6.92-15.4-15.4v-122.26c0-8.5,6.9-15.4,15.4-15.4s15.4,6.9,15.4,15.4v122.26Zm0-.02v.02c0,8.48-6.9,15.4-15.4,15.4s-15.4-6.92-15.4-15.4v-78.52c-14.24,.71-28.24,2.41-41.89,5v73.52c0,2.24,.12,4.46,.39,6.63,3.28,28.48,27.55,50.66,56.89,50.66s53.61-22.17,56.89-50.66c-13.38-3.45-27.25-5.72-41.49-6.65Zm0,0v.02c0,8.48-6.9,15.4-15.4,15.4s-15.4-6.92-15.4-15.4v-78.52c-14.24,.71-28.24,2.41-41.89,5v73.52c0,2.24,.12,4.46,.39,6.63,3.28,28.48,27.55,50.66,56.89,50.66s53.61-22.17,56.89-50.66c-13.38-3.45-27.25-5.72-41.49-6.65Zm0,0v.02c0,8.48-6.9,15.4-15.4,15.4s-15.4-6.92-15.4-15.4v-78.52c-14.24,.71-28.24,2.41-41.89,5v73.52c0,2.24,.12,4.46,.39,6.63,3.28,28.48,27.55,50.66,56.89,50.66s53.61-22.17,56.89-50.66c-13.38-3.45-27.25-5.72-41.49-6.65Zm0,0v.02c0,8.48-6.9,15.4-15.4,15.4s-15.4-6.92-15.4-15.4v-78.52c-14.24,.71-28.24,2.41-41.89,5v73.52c0,2.24,.12,4.46,.39,6.63,3.28,28.48,27.55,50.66,56.89,50.66s53.61-22.17,56.89-50.66c-13.38-3.45-27.25-5.72-41.49-6.65Zm0,0v.02c0,8.48-6.9,15.4-15.4,15.4s-15.4-6.92-15.4-15.4v-78.52c-14.24,.71-28.24,2.41-41.89,5v73.52c0,2.24,.12,4.46,.39,6.63,3.28,28.48,27.55,50.66,56.89,50.66s53.61-22.17,56.89-50.66c-13.38-3.45-27.25-5.72-41.49-6.65Zm0,0v.02c0,8.48-6.9,15.4-15.4,15.4s-15.4-6.92-15.4-15.4v-78.52c-14.24,.71-28.24,2.41-41.89,5v73.52c0,2.24,.12,4.46,.39,6.63,3.28,28.48,27.55,50.66,56.89,50.66s53.61-22.17,56.89-50.66c-13.38-3.45-27.25-5.72-41.49-6.65Zm0,0v.02c0,8.48-6.9,15.4-15.4,15.4s-15.4-6.92-15.4-15.4v-78.52c-14.24,.71-28.24,2.41-41.89,5v73.52c0,2.24,.12,4.46,.39,6.63,3.28,28.48,27.55,50.66,56.89,50.66s53.61-22.17,56.89-50.66c-13.38-3.45-27.25-5.72-41.49-6.65Z"/>
  <path class="cls-4" d="M640,567.6c-39.91,0-72.39,32.47-72.39,72.39s32.47,72.39,72.39,72.39,72.39-32.47,72.39-72.39-32.47-72.39-72.39-72.39Zm0,102.89c-16.83,0-30.5-13.67-30.5-30.5s13.67-30.5,30.5-30.5,30.5,13.67,30.5,30.5-13.67,30.5-30.5,30.5Z"/>
</svg>