<?xml version="1.0" encoding="UTF-8"?>
<svg id="Layer_1" data-name="Layer 1" xmlns="http://www.w3.org/2000/svg" xmlns:xlink="http://www.w3.org/1999/xlink" viewBox="0 0 1280 769">
  <defs>
    <style>
      .cls-1 {
        fill: url(#linear-gradient-2);
      }

      .cls-2 {
        fill: #fff;
      }

      .cls-3 {
        fill: url(#linear-gradient-6);
      }

      .cls-4 {
        fill: url(#linear-gradient-11);
      }

      .cls-5 {
        fill: url(#linear-gradient-10);
      }

      .cls-6 {
        fill: url(#linear-gradient-5);
      }

      .cls-7 {
        fill: url(#linear-gradient-7);
      }

      .cls-8 {
        fill: url(#linear-gradient-9);
      }

      .cls-9 {
        fill: url(#linear-gradient-3);
      }

      .cls-10 {
        fill: url(#linear-gradient);
      }

      .cls-11 {
        fill: url(#linear-gradient-4);
      }

      .cls-12 {
        fill: url(#linear-gradient-8);
      }

      .cls-13 {
        fill: url(#linear-gradient-12);
      }

      .cls-14 {
        fill: url(#linear-gradient-13);
      }
    </style>
    <linearGradient id="linear-gradient" x1="638.41" y1="414.32" x2="638.41" y2="354.86" gradientUnits="userSpaceOnUse">
      <stop offset="0" stop-color="#f76a00"/>
      <stop offset="1" stop-color="#f3d20b"/>
    </linearGradient>
    <linearGradient id="linear-gradient-2" x1="728.83" y1="413.43" x2="728.83" y2="355.67" xlink:href="#linear-gradient"/>
    <linearGradient id="linear-gradient-3" x1="791.35" y1="413.43" x2="791.35" y2="355.67" xlink:href="#linear-gradient"/>
    <linearGradient id="linear-gradient-4" x1="847.18" y1="413.35" x2="847.18" y2="355.49" xlink:href="#linear-gradient"/>
    <linearGradient id="linear-gradient-5" x1="924.63" y1="413.35" x2="924.63" y2="355.49" xlink:href="#linear-gradient"/>
    <linearGradient id="linear-gradient-6" x1="1005.7" y1="413.35" x2="1005.7" y2="355.49" xlink:href="#linear-gradient"/>
    <linearGradient id="linear-gradient-7" x1="311.18" y1="305.73" x2="312.44" y2="464.39" gradientUnits="userSpaceOnUse">
      <stop offset="0" stop-color="#f3d20b"/>
      <stop offset="1" stop-color="#f76a00"/>
    </linearGradient>
    <linearGradient id="linear-gradient-8" x1="311.18" y1="305.73" x2="312.44" y2="464.39" xlink:href="#linear-gradient-7"/>
    <linearGradient id="linear-gradient-9" x1="259.95" y1="306.14" x2="261.21" y2="464.8" xlink:href="#linear-gradient-7"/>
    <linearGradient id="linear-gradient-10" x1="310.77" y1="305.74" x2="312.03" y2="464.39" xlink:href="#linear-gradient-7"/>
    <linearGradient id="linear-gradient-11" x1="362.41" y1="305.33" x2="363.67" y2="463.98" xlink:href="#linear-gradient-7"/>
    <linearGradient id="linear-gradient-12" x1="311.59" y1="305.73" x2="312.85" y2="464.39" xlink:href="#linear-gradient-7"/>
    <linearGradient id="linear-gradient-13" x1="311.18" y1="305.73" x2="312.44" y2="464.39" xlink:href="#linear-gradient-7"/>
  </defs>
  <g>
    <path class="cls-2" d="M402.06,413.43v-57.76h17.8v57.76h-17.8Z"/>
    <path class="cls-2" d="M465,354.68c16.52,0,26.68,1.38,30.5,4.13,3.34,2.38,5.02,8.7,5.02,18.95h-17.88c0-3.35-.89-5.48-2.67-6.4-2.21-1.13-7.2-1.7-14.97-1.7-8.68,0-13.78,.68-15.29,2.03-1.52,1.34-2.27,5.6-2.27,12.78s.76,11.35,2.27,12.7c1.51,1.34,6.61,2.01,15.29,2.01,7.88,0,12.81-.49,14.82-1.46,1.94-.91,2.9-3.11,2.9-6.62h17.8c0,10.3-1.61,16.61-4.84,18.92-3.83,2.75-14.06,4.13-30.68,4.13s-26.64-1.51-30.11-4.52c-3.5-3.03-5.25-11.44-5.25-25.25s1.67-22.1,5.02-25.01c3.62-3.13,13.74-4.7,30.34-4.7Z"/>
    <path class="cls-2" d="M590.58,384.47c0,14.08-1.7,22.49-5.1,25.25-3.66,2.96-14.72,4.44-33.17,4.44-13.49,0-22.34-.49-26.55-1.46-5.28-1.24-8.62-3.93-10.02-8.08-1.08-3.19-1.62-9.9-1.62-20.15,0-14.08,1.67-22.49,5.02-25.25,3.66-3.03,14.72-4.54,33.17-4.54s29.43,1.49,33.09,4.46c3.45,2.81,5.18,11.25,5.18,25.33Zm-58.65,0c0,7.39,.86,11.67,2.59,12.86,1.67,1.24,7.61,1.86,17.8,1.86s16.23-.62,17.96-1.86c1.67-1.19,2.51-5.47,2.51-12.86s-.84-11.8-2.51-13.04c-1.67-1.18-7.63-1.78-17.88-1.78s-16.2,.59-17.88,1.78c-1.72,1.24-2.59,5.58-2.59,13.04Z"/>
    <path class="cls-10" d="M638.4,400.31c8.59,0,13.55-.14,14.89-.41,1.36-.26,2.03-1.31,2.03-3.15,0-2.21-.95-3.61-2.84-4.2-1.88-.54-6.58-.81-14.09-.81-14.83,0-24.19-1.07-28.07-3.22-3.89-2.16-5.83-7.5-5.83-16.02,0-7.88,2.53-12.92,7.61-15.13,3.89-1.67,12.52-2.51,25.9-2.51,11.92,0,19.47,.32,22.66,.97,7.49,1.5,11.24,7.86,11.24,19.09h-17.8c0-3.06-.67-4.86-2.02-5.4-1.36-.49-6.03-.73-14.01-.73s-12.67,.14-13.91,.41c-1.25,.31-1.88,1.42-1.88,3.31s1.05,3.27,3.16,3.86c2.11,.59,6.42,.89,12.94,.89,14.68,0,24.15,1.16,28.41,3.48,4.21,2.32,6.32,7.66,6.32,16.02,0,7.72-2.38,12.66-7.13,14.82-4.1,1.83-13.32,2.75-27.68,2.75-11.05,0-18.22-.24-21.51-.73-5.07-.75-8.52-2.53-10.35-5.34-1.84-2.75-2.77-7.55-2.77-14.4h17.8c0,3.23,.7,5.12,2.1,5.66s6.34,.81,14.81,.81Z"/>
    <path class="cls-1" d="M767.87,413.43h-29.14l-30.5-42.81c-.32-.65-.64-1.34-.97-2.09-.38-.7-.76-1.05-1.13-1.05,0,.54,.03,1.07,.08,1.6,.91,2.92,1.36,4.41,1.36,4.46v39.88h-17.8v-57.76h29.14l30.42,42.71c.33,.7,.68,1.4,1.05,2.11,.33,.7,.68,1.05,1.05,1.05-.05-.54-.08-1.08-.08-1.62-.42-1.46-.85-2.94-1.28-4.45v-39.81h17.8v57.76Z"/>
    <path class="cls-9" d="M782.45,413.43v-57.76h17.8v57.76h-17.8Z"/>
    <path class="cls-11" d="M813.19,355.49h43.54c9.48,0,15.74,1.16,18.77,3.48,3.78,2.87,5.67,8.99,5.67,18.37s-1.86,15.44-5.59,18.29c-3.08,2.37-9.36,3.56-18.85,3.56h-25.74v14.16h-17.8v-57.86Zm17.8,28.72h25.74c2.09,0,3.68-.45,4.76-1.36,1.3-1.13,1.96-2.97,1.96-5.51s-.65-4.49-1.96-5.57c-1.03-.87-2.61-1.3-4.76-1.3h-25.74v13.75Z"/>
    <path class="cls-6" d="M893.47,413.35v-57.86h62.31v14.01h-44.51v8h42.47v13.93h-42.47v7.92h44.51v14.01h-62.31Z"/>
    <path class="cls-3" d="M970.91,355.49h51.78c6.36,0,10.86,1.16,13.51,3.48,2.86,2.54,4.29,6.99,4.29,13.35,0,4.91-.59,8.58-1.78,11-1.24,2.44-3.31,4.22-6.22,5.35,3.23,1.4,5.38,2.82,6.46,4.29,1.03,1.45,1.54,3.93,1.54,7.45v12.94h-17.8v-10.35c0-1.51-.43-2.81-1.3-3.89-1.01-1.29-2.52-1.94-4.52-1.94h-28.15v16.18h-17.8v-57.86Zm17.8,14.97v11.73h28.54c1.95,0,3.35-.43,4.21-1.28,.82-.82,1.22-2.33,1.22-4.54s-.43-3.75-1.3-4.6c-.86-.87-2.23-1.3-4.13-1.3h-28.54Z"/>
  </g>
  <g>
    <path class="cls-7" d="M366.13,387.24c-.13,2.53-.43,5.02-.89,7.45-.4,2.09-.92,4.14-1.55,6.13-5.32,16.89-18.68,30.24-35.57,35.57v7.76c21-5.74,37.58-22.32,43.33-43.33,.55-2.01,1-4.05,1.35-6.13,.41-2.44,.67-4.92,.78-7.45h-7.45Zm-51.59,59.04c2.52-.11,5.01-.37,7.45-.78v-7.56c-2.43,.46-4.92,.76-7.45,.89v7.45Zm-12.93-8.34c-2.09-.4-4.14-.92-6.13-1.55-16.89-5.32-30.24-18.68-35.57-35.57h-7.76c5.75,21,22.33,37.58,43.33,43.33,2.01,.55,4.05,1,6.13,1.35,2.44,.41,4.92,.67,7.45,.78v-7.45c-2.53-.13-5.02-.43-7.45-.89Zm-44.14-50.7h-7.45c.11,2.52,.37,5.01,.78,7.45h7.56c-.46-2.43-.76-4.92-.89-7.45Zm44.14-63.74v7.56c2.43-.46,4.92-.76,7.45-.89v-7.45c-2.52,.11-5.01,.37-7.45,.78Zm-49.47,44.68c-.55,2.01-1,4.05-1.35,6.13-.41,2.44-.67,4.92-.78,7.45h7.45c.13-2.53,.43-5.02,.89-7.45,.4-2.09,.92-4.14,1.55-6.13,5.32-16.89,18.68-30.24,35.57-35.57v-7.76c-21,5.75-37.58,22.33-43.33,43.33Zm75.97-43.33c-2.01-.55-4.05-1-6.13-1.35-2.44-.41-4.92-.67-7.45-.78v7.45c2.53,.13,5.02,.43,7.45,.89,2.09,.4,4.14,.92,6.13,1.55,16.89,5.32,30.24,18.68,35.57,35.57h7.76c-5.75-21-22.33-37.58-43.33-43.33Zm44.68,49.46h-7.56c.46,2.43,.76,4.92,.89,7.45h7.45c-.11-2.52-.37-5.01-.78-7.45Z"/>
    <path class="cls-12" d="M358.62,374.31c-.46-2.1-1.05-4.15-1.77-6.13-4.84-13.31-15.41-23.89-28.73-28.72v4.68c0,.65-.04,1.3-.11,1.91-.05,.44-.12,.87-.21,1.29,9.46,4.09,17.07,11.69,21.16,21.16,.82,1.89,1.5,3.86,2.02,5.88,.61,2.38,1.02,4.85,1.18,7.38h7.47c-.14-2.54-.49-5.03-1.02-7.45Zm-44.08-37.64v7.47c2.53,.17,5,.57,7.38,1.18,.05-.39,.07-.78,.07-1.18v-6.46c-2.42-.53-4.91-.87-7.45-1.01Zm-43.1,37.64h-6.46c-.53,2.42-.87,4.91-1.02,7.45h7.47c.17-2.53,.57-5,1.18-7.38-.39-.05-.78-.07-1.17-.07Zm30.17-36.63c-2.1,.46-4.15,1.05-6.13,1.77-13.32,4.83-23.89,15.41-28.73,28.72h4.69c.65,0,1.29,.04,1.91,.11,.44,.05,.87,.12,1.29,.21,4.09-9.46,11.7-17.07,21.16-21.16,1.89-.82,3.86-1.5,5.88-2.02,2.38-.61,4.85-1.02,7.38-1.18v-7.47c-2.54,.14-5.03,.49-7.45,1.01Zm-26.98,62.82c-.82-1.89-1.5-3.86-2.02-5.88-.61-2.38-1.02-4.85-1.18-7.38h-7.47c.14,2.54,.49,5.03,1.02,7.45,.46,2.1,1.05,4.15,1.77,6.13,4.84,13.32,15.41,23.89,28.73,28.72v-4.68c0-.65,.04-1.3,.11-1.91,.05-.43,.12-.86,.21-1.29-9.47-4.09-17.08-11.7-21.17-21.17Zm27.05,23.19c-.05,.39-.07,.78-.07,1.18v6.45c2.42,.53,4.91,.87,7.45,1.02v-7.47c-2.53-.17-5-.57-7.38-1.18Zm50.48-22.87c-.65,0-1.29-.04-1.91-.11-.43-.05-.86-.12-1.29-.21-4.09,9.47-11.7,17.07-21.17,21.17-1.89,.82-3.86,1.49-5.88,2.02-2.38,.61-4.85,1.02-7.38,1.18v7.47c2.54-.14,5.03-.49,7.45-1.02,2.1-.46,4.15-1.05,6.13-1.77,13.32-4.83,23.89-15.41,28.73-28.72h-4.69Zm0-13.58c-.17,2.53-.57,4.99-1.18,7.38,.39,.05,.78,.07,1.17,.07h6.46c.53-2.42,.87-4.91,1.02-7.45h-7.47Z"/>
    <path class="cls-8" d="M271.43,387.24h-13.95c.13,2.53,.43,5.02,.89,7.45h13.07c.4,0,.79-.02,1.17-.07-.61-2.38-1.02-4.85-1.18-7.38Zm1.18-12.86c-.61,2.38-1.02,4.85-1.18,7.38h0c1.51,0,2.74,1.23,2.74,2.74s-1.23,2.74-2.74,2.74h-13.96c.13,2.53,.43,5.02,.89,7.45h13.07c.4,0,.79-.02,1.17-.07,5.06-.58,9.01-4.9,9.01-10.12s-3.95-9.53-9.01-10.12Zm0,0c-.61,2.38-1.02,4.85-1.18,7.38h0c1.51,0,2.74,1.23,2.74,2.74s-1.23,2.74-2.74,2.74h-13.96c.13,2.53,.43,5.02,.89,7.45h13.07c.4,0,.79-.02,1.17-.07,5.06-.58,9.01-4.9,9.01-10.12s-3.95-9.53-9.01-10.12Zm0,0c-.61,2.38-1.02,4.85-1.18,7.38h0c1.51,0,2.74,1.23,2.74,2.74s-1.23,2.74-2.74,2.74h-13.96c.13,2.53,.43,5.02,.89,7.45h13.07c.4,0,.79-.02,1.17-.07,5.06-.58,9.01-4.9,9.01-10.12s-3.95-9.53-9.01-10.12Zm0,0c-.61,2.38-1.02,4.85-1.18,7.38h0c1.51,0,2.74,1.23,2.74,2.74s-1.23,2.74-2.74,2.74h-13.96c.13,2.53,.43,5.02,.89,7.45h13.07c.4,0,.79-.02,1.17-.07,5.06-.58,9.01-4.9,9.01-10.12s-3.95-9.53-9.01-10.12Zm0,0c-.39-.05-.78-.07-1.17-.07h-21.74c-5.62,0-10.19,4.57-10.19,10.19s4.57,10.19,10.19,10.19h21.74c.4,0,.79-.02,1.17-.07,5.06-.58,9.01-4.9,9.01-10.12s-3.95-9.53-9.01-10.12Zm-1.17,12.86h-21.74c-1.51,0-2.74-1.23-2.74-2.74s1.23-2.74,2.74-2.74h21.74c1.51,0,2.74,1.23,2.74,2.74s-1.23,2.74-2.74,2.74Zm1.17-12.86c-.61,2.38-1.02,4.85-1.18,7.38h0c1.51,0,2.74,1.23,2.74,2.74s-1.23,2.74-2.74,2.74h-13.96c.13,2.53,.43,5.02,.89,7.45h13.07c.4,0,.79-.02,1.17-.07,5.06-.58,9.01-4.9,9.01-10.12s-3.95-9.53-9.01-10.12Zm0,0c-.61,2.38-1.02,4.85-1.18,7.38h0c1.51,0,2.74,1.23,2.74,2.74s-1.23,2.74-2.74,2.74h-13.96c.13,2.53,.43,5.02,.89,7.45h13.07c.4,0,.79-.02,1.17-.07,5.06-.58,9.01-4.9,9.01-10.12s-3.95-9.53-9.01-10.12Zm0,0c-.61,2.38-1.02,4.85-1.18,7.38h0c1.51,0,2.74,1.23,2.74,2.74s-1.23,2.74-2.74,2.74h-13.96c.13,2.53,.43,5.02,.89,7.45h13.07c.4,0,.79-.02,1.17-.07,5.06-.58,9.01-4.9,9.01-10.12s-3.95-9.53-9.01-10.12Zm0,0c-.61,2.38-1.02,4.85-1.18,7.38h0c1.51,0,2.74,1.23,2.74,2.74s-1.23,2.74-2.74,2.74h-13.96c.13,2.53,.43,5.02,.89,7.45h13.07c.4,0,.79-.02,1.17-.07,5.06-.58,9.01-4.9,9.01-10.12s-3.95-9.53-9.01-10.12Z"/>
    <path class="cls-5" d="M321.92,423.68c-.58-5.06-4.9-9.01-10.12-9.01s-9.53,3.95-10.12,9.01c2.38,.61,4.85,1.02,7.38,1.18h0c0-1.52,1.23-2.75,2.74-2.75s2.74,1.23,2.74,2.74v13.96c2.53-.13,5.02-.43,7.45-.89v-13.07c0-.4-.02-.79-.07-1.18Zm0,0c-.58-5.06-4.9-9.01-10.12-9.01s-9.53,3.95-10.12,9.01c2.38,.61,4.85,1.02,7.38,1.18h0c0-1.52,1.23-2.75,2.74-2.75s2.74,1.23,2.74,2.74v13.96c2.53-.13,5.02-.43,7.45-.89v-13.07c0-.4-.02-.79-.07-1.18Zm0,0c-.58-5.06-4.9-9.01-10.12-9.01s-9.53,3.95-10.12,9.01c2.38,.61,4.85,1.02,7.38,1.18h0c0-1.52,1.23-2.75,2.74-2.75s2.74,1.23,2.74,2.74v13.96c2.53-.13,5.02-.43,7.45-.89v-13.07c0-.4-.02-.79-.07-1.18Zm0,0c-.58-5.06-4.9-9.01-10.12-9.01s-9.53,3.95-10.12,9.01c2.38,.61,4.85,1.02,7.38,1.18h0c0-1.52,1.23-2.75,2.74-2.75s2.74,1.23,2.74,2.74v13.96c2.53-.13,5.02-.43,7.45-.89v-13.07c0-.4-.02-.79-.07-1.18Zm0,0c-.58-5.06-4.9-9.01-10.12-9.01s-9.53,3.95-10.12,9.01c2.38,.61,4.85,1.02,7.38,1.18h0c0-1.52,1.23-2.75,2.74-2.75s2.74,1.23,2.74,2.74v13.96c2.53-.13,5.02-.43,7.45-.89v-13.07c0-.4-.02-.79-.07-1.18Zm0,0c-.58-5.06-4.9-9.01-10.12-9.01s-9.53,3.95-10.12,9.01c-.05,.39-.07,.78-.07,1.18v21.74c0,5.62,4.57,10.19,10.19,10.19s10.19-4.57,10.19-10.19v-21.74c0-.4-.02-.79-.07-1.18Zm-7.38,22.92c0,1.51-1.23,2.74-2.74,2.74s-2.74-1.23-2.74-2.74v-21.74c0-1.51,1.23-2.74,2.74-2.74s2.74,1.23,2.74,2.74v21.74Zm7.38-22.92c-.58-5.06-4.9-9.01-10.12-9.01s-9.53,3.95-10.12,9.01c2.38,.61,4.85,1.02,7.38,1.18h0c0-1.52,1.23-2.75,2.74-2.75s2.74,1.23,2.74,2.74v13.96c2.53-.13,5.02-.43,7.45-.89v-13.07c0-.4-.02-.79-.07-1.18Zm0,0c-.58-5.06-4.9-9.01-10.12-9.01s-9.53,3.95-10.12,9.01c2.38,.61,4.85,1.02,7.38,1.18h0c0-1.52,1.23-2.75,2.74-2.75s2.74,1.23,2.74,2.74v13.96c2.53-.13,5.02-.43,7.45-.89v-13.07c0-.4-.02-.79-.07-1.18Zm0,0c-.58-5.06-4.9-9.01-10.12-9.01s-9.53,3.95-10.12,9.01c2.38,.61,4.85,1.02,7.38,1.18h0c0-1.52,1.23-2.75,2.74-2.75s2.74,1.23,2.74,2.74v13.96c2.53-.13,5.02-.43,7.45-.89v-13.07c0-.4-.02-.79-.07-1.18Zm0,0c-.58-5.06-4.9-9.01-10.12-9.01s-9.53,3.95-10.12,9.01c2.38,.61,4.85,1.02,7.38,1.18h0c0-1.52,1.23-2.75,2.74-2.75s2.74,1.23,2.74,2.74v13.96c2.53-.13,5.02-.43,7.45-.89v-13.07c0-.4-.02-.79-.07-1.18Zm0,0c-.58-5.06-4.9-9.01-10.12-9.01s-9.53,3.95-10.12,9.01c2.38,.61,4.85,1.02,7.38,1.18h0c0-1.52,1.23-2.75,2.74-2.75s2.74,1.23,2.74,2.74v13.96c2.53-.13,5.02-.43,7.45-.89v-13.07c0-.4-.02-.79-.07-1.18Z"/>
    <path class="cls-4" d="M349.43,384.5c0-1.51,1.23-2.74,2.74-2.74h0c-.17-2.53-.57-5-1.18-7.38-5.06,.58-9.01,4.9-9.01,10.12s3.95,9.53,9.01,10.12c.61-2.38,1.02-4.85,1.18-7.38h0c-1.51,0-2.74-1.23-2.74-2.74Zm15.81-10.19h-13.07c-.4,0-.79,.02-1.17,.07-5.06,.58-9.01,4.9-9.01,10.12s3.95,9.53,9.01,10.12c.61-2.38,1.02-4.85,1.18-7.38h0c-1.51,0-2.74-1.23-2.74-2.74s1.23-2.74,2.74-2.74h13.96c-.13-2.53-.43-5.02-.89-7.45Zm0,0h-13.07c-.4,0-.79,.02-1.17,.07-5.06,.58-9.01,4.9-9.01,10.12s3.95,9.53,9.01,10.12c.61-2.38,1.02-4.85,1.18-7.38h0c-1.51,0-2.74-1.23-2.74-2.74s1.23-2.74,2.74-2.74h13.96c-.13-2.53-.43-5.02-.89-7.45Zm0,0h-13.07c-.4,0-.79,.02-1.17,.07-5.06,.58-9.01,4.9-9.01,10.12s3.95,9.53,9.01,10.12c.61-2.38,1.02-4.85,1.18-7.38h0c-1.51,0-2.74-1.23-2.74-2.74s1.23-2.74,2.74-2.74h13.96c-.13-2.53-.43-5.02-.89-7.45Zm0,0h-13.07c-.4,0-.79,.02-1.17,.07-5.06,.58-9.01,4.9-9.01,10.12s3.95,9.53,9.01,10.12c.61-2.38,1.02-4.85,1.18-7.38h0c-1.51,0-2.74-1.23-2.74-2.74s1.23-2.74,2.74-2.74h13.96c-.13-2.53-.43-5.02-.89-7.45Zm0,0h-13.07c-.4,0-.79,.02-1.17,.07-5.06,.58-9.01,4.9-9.01,10.12s3.95,9.53,9.01,10.12c.61-2.38,1.02-4.85,1.18-7.38h0c-1.51,0-2.74-1.23-2.74-2.74s1.23-2.74,2.74-2.74h13.96c-.13-2.53-.43-5.02-.89-7.45Zm0,0h-13.07c-.4,0-.79,.02-1.17,.07-5.06,.58-9.01,4.9-9.01,10.12s3.95,9.53,9.01,10.12c.61-2.38,1.02-4.85,1.18-7.38h0c-1.51,0-2.74-1.23-2.74-2.74s1.23-2.74,2.74-2.74h13.96c-.13-2.53-.43-5.02-.89-7.45Zm8.67,0h-21.74c-.4,0-.79,.02-1.17,.07-5.06,.58-9.01,4.9-9.01,10.12s3.95,9.53,9.01,10.12c.39,.05,.78,.07,1.17,.07h21.74c5.62,0,10.19-4.57,10.19-10.19s-4.57-10.19-10.19-10.19Zm0,12.93h-21.74c-1.51,0-2.74-1.23-2.74-2.74s1.23-2.74,2.74-2.74h21.74c1.51,0,2.74,1.23,2.74,2.74s-1.23,2.74-2.74,2.74Zm-8.67-12.93h-13.07c-.4,0-.79,.02-1.17,.07-5.06,.58-9.01,4.9-9.01,10.12s3.95,9.53,9.01,10.12c.61-2.38,1.02-4.85,1.18-7.38h0c-1.51,0-2.74-1.23-2.74-2.74s1.23-2.74,2.74-2.74h13.96c-.13-2.53-.43-5.02-.89-7.45Zm0,0h-13.07c-.4,0-.79,.02-1.17,.07-5.06,.58-9.01,4.9-9.01,10.12s3.95,9.53,9.01,10.12c.61-2.38,1.02-4.85,1.18-7.38h0c-1.51,0-2.74-1.23-2.74-2.74s1.23-2.74,2.74-2.74h13.96c-.13-2.53-.43-5.02-.89-7.45Zm0,0h-13.07c-.4,0-.79,.02-1.17,.07-5.06,.58-9.01,4.9-9.01,10.12s3.95,9.53,9.01,10.12c.61-2.38,1.02-4.85,1.18-7.38h0c-1.51,0-2.74-1.23-2.74-2.74s1.23-2.74,2.74-2.74h13.96c-.13-2.53-.43-5.02-.89-7.45Zm0,0h-13.07c-.4,0-.79,.02-1.17,.07-5.06,.58-9.01,4.9-9.01,10.12s3.95,9.53,9.01,10.12c.61-2.38,1.02-4.85,1.18-7.38h0c-1.51,0-2.74-1.23-2.74-2.74s1.23-2.74,2.74-2.74h13.96c-.13-2.53-.43-5.02-.89-7.45Zm0,0h-13.07c-.4,0-.79,.02-1.17,.07-5.06,.58-9.01,4.9-9.01,10.12s3.95,9.53,9.01,10.12c.61-2.38,1.02-4.85,1.18-7.38h0c-1.51,0-2.74-1.23-2.74-2.74s1.23-2.74,2.74-2.74h13.96c-.13-2.53-.43-5.02-.89-7.45Zm0,0h-13.07c-.4,0-.79,.02-1.17,.07-5.06,.58-9.01,4.9-9.01,10.12s3.95,9.53,9.01,10.12c.61-2.38,1.02-4.85,1.18-7.38h0c-1.51,0-2.74-1.23-2.74-2.74s1.23-2.74,2.74-2.74h13.96c-.13-2.53-.43-5.02-.89-7.45Z"/>
    <path class="cls-13" d="M301.62,331.06v13.07c0,.4,.02,.79,.07,1.18,2.38-.61,4.85-1.02,7.38-1.18v-13.96c-2.53,.13-5.02,.43-7.45,.89Zm12.93,13.07h0c0,1.51-1.23,2.74-2.74,2.74s-2.74-1.23-2.74-2.74v-13.96c-2.53,.13-5.02,.43-7.45,.89v13.07c0,.4,.02,.79,.07,1.18,.58,5.06,4.9,9.01,10.12,9.01s9.53-3.94,10.12-9.01c-2.38-.61-4.85-1.02-7.38-1.18Zm0,0h0c0,1.51-1.23,2.74-2.74,2.74s-2.74-1.23-2.74-2.74v-13.96c-2.53,.13-5.02,.43-7.45,.89v13.07c0,.4,.02,.79,.07,1.18,.58,5.06,4.9,9.01,10.12,9.01s9.53-3.94,10.12-9.01c-2.38-.61-4.85-1.02-7.38-1.18Zm0,0h0c0,1.51-1.23,2.74-2.74,2.74s-2.74-1.23-2.74-2.74v-13.96c-2.53,.13-5.02,.43-7.45,.89v13.07c0,.4,.02,.79,.07,1.18,.58,5.06,4.9,9.01,10.12,9.01s9.53-3.94,10.12-9.01c-2.38-.61-4.85-1.02-7.38-1.18Zm0,0h0c0,1.51-1.23,2.74-2.74,2.74s-2.74-1.23-2.74-2.74v-13.96c-2.53,.13-5.02,.43-7.45,.89v13.07c0,.4,.02,.79,.07,1.18,.58,5.06,4.9,9.01,10.12,9.01s9.53-3.94,10.12-9.01c-2.38-.61-4.85-1.02-7.38-1.18Zm0,0h0c0,1.51-1.23,2.74-2.74,2.74s-2.74-1.23-2.74-2.74v-13.96c-2.53,.13-5.02,.43-7.45,.89v13.07c0,.4,.02,.79,.07,1.18,.58,5.06,4.9,9.01,10.12,9.01s9.53-3.94,10.12-9.01c-2.38-.61-4.85-1.02-7.38-1.18Zm0,0h0c0,1.51-1.23,2.74-2.74,2.74s-2.74-1.23-2.74-2.74v-13.96c-2.53,.13-5.02,.43-7.45,.89v13.07c0,.4,.02,.79,.07,1.18,.58,5.06,4.9,9.01,10.12,9.01s9.53-3.94,10.12-9.01c-2.38-.61-4.85-1.02-7.38-1.18Zm0,0h0c0,1.51-1.23,2.74-2.74,2.74s-2.74-1.23-2.74-2.74v-13.96c-2.53,.13-5.02,.43-7.45,.89v13.07c0,.4,.02,.79,.07,1.18,.58,5.06,4.9,9.01,10.12,9.01s9.53-3.94,10.12-9.01c-2.38-.61-4.85-1.02-7.38-1.18Zm-2.74-31.92c-5.62,0-10.19,4.57-10.19,10.19v21.74c0,.4,.02,.79,.07,1.18,.58,5.06,4.9,9.01,10.12,9.01s9.53-3.94,10.12-9.01c.05-.39,.07-.78,.07-1.18v-21.74c0-5.62-4.57-10.19-10.19-10.19Zm2.74,31.93c0,1.51-1.23,2.74-2.74,2.74s-2.74-1.23-2.74-2.74v-21.74c0-1.51,1.23-2.74,2.74-2.74s2.74,1.23,2.74,2.74v21.74Zm0,0h0c0,1.51-1.23,2.74-2.74,2.74s-2.74-1.23-2.74-2.74v-13.96c-2.53,.13-5.02,.43-7.45,.89v13.07c0,.4,.02,.79,.07,1.18,.58,5.06,4.9,9.01,10.12,9.01s9.53-3.94,10.12-9.01c-2.38-.61-4.85-1.02-7.38-1.18Zm0,0h0c0,1.51-1.23,2.74-2.74,2.74s-2.74-1.23-2.74-2.74v-13.96c-2.53,.13-5.02,.43-7.45,.89v13.07c0,.4,.02,.79,.07,1.18,.58,5.06,4.9,9.01,10.12,9.01s9.53-3.94,10.12-9.01c-2.38-.61-4.85-1.02-7.38-1.18Zm0,0h0c0,1.51-1.23,2.74-2.74,2.74s-2.74-1.23-2.74-2.74v-13.96c-2.53,.13-5.02,.43-7.45,.89v13.07c0,.4,.02,.79,.07,1.18,.58,5.06,4.9,9.01,10.12,9.01s9.53-3.94,10.12-9.01c-2.38-.61-4.85-1.02-7.38-1.18Zm0,0h0c0,1.51-1.23,2.74-2.74,2.74s-2.74-1.23-2.74-2.74v-13.96c-2.53,.13-5.02,.43-7.45,.89v13.07c0,.4,.02,.79,.07,1.18,.58,5.06,4.9,9.01,10.12,9.01s9.53-3.94,10.12-9.01c-2.38-.61-4.85-1.02-7.38-1.18Zm0,0h0c0,1.51-1.23,2.74-2.74,2.74s-2.74-1.23-2.74-2.74v-13.96c-2.53,.13-5.02,.43-7.45,.89v13.07c0,.4,.02,.79,.07,1.18,.58,5.06,4.9,9.01,10.12,9.01s9.53-3.94,10.12-9.01c-2.38-.61-4.85-1.02-7.38-1.18Zm0,0h0c0,1.51-1.23,2.74-2.74,2.74s-2.74-1.23-2.74-2.74v-13.96c-2.53,.13-5.02,.43-7.45,.89v13.07c0,.4,.02,.79,.07,1.18,.58,5.06,4.9,9.01,10.12,9.01s9.53-3.94,10.12-9.01c-2.38-.61-4.85-1.02-7.38-1.18Zm0,0h0c0,1.51-1.23,2.74-2.74,2.74s-2.74-1.23-2.74-2.74v-13.96c-2.53,.13-5.02,.43-7.45,.89v13.07c0,.4,.02,.79,.07,1.18,.58,5.06,4.9,9.01,10.12,9.01s9.53-3.94,10.12-9.01c-2.38-.61-4.85-1.02-7.38-1.18Z"/>
    <path class="cls-14" d="M311.8,371.63c-7.1,0-12.87,5.77-12.87,12.87s5.77,12.87,12.87,12.87,12.87-5.77,12.87-12.87-5.77-12.87-12.87-12.87Zm0,18.3c-2.99,0-5.42-2.43-5.42-5.42s2.43-5.42,5.42-5.42,5.42,2.43,5.42,5.42-2.43,5.42-5.42,5.42Z"/>
  </g>
</svg>